<svg width="956" height="199" viewBox="0 0 956 199" fill="none" xmlns="http://www.w3.org/2000/svg">
<path d="M0.750001 22H41.25V164H129V197H0.750001V22Z" fill="#FCCA00"/>
<path d="M148.879 62.5H187.879V197H148.879V62.5ZM168.379 43.75C161.212 43.75 155.379 41.6667 150.879 37.5C146.379 33.3333 144.129 28.1667 144.129 22C144.129 15.8333 146.379 10.6667 150.879 6.49999C155.379 2.33332 161.212 0.249985 168.379 0.249985C175.546 0.249985 181.379 2.24999 185.879 6.25C190.379 10.25 192.629 15.25 192.629 21.25C192.629 27.75 190.379 33.1667 185.879 37.5C181.379 41.6667 175.546 43.75 168.379 43.75ZM357.574 62.5L300.824 197H260.574L204.074 62.5H244.324L281.574 154L320.074 62.5H357.574ZM501.576 130.25C501.576 130.75 501.326 134.25 500.826 140.75H399.076C400.91 149.083 405.243 155.667 412.076 160.5C418.91 165.333 427.41 167.75 437.576 167.75C444.576 167.75 450.743 166.75 456.076 164.75C461.576 162.583 466.66 159.25 471.326 154.75L492.076 177.25C479.41 191.75 460.91 199 436.576 199C421.41 199 407.993 196.083 396.326 190.25C384.66 184.25 375.66 176 369.326 165.5C362.993 155 359.826 143.083 359.826 129.75C359.826 116.583 362.91 104.75 369.076 94.25C375.41 83.5833 383.993 75.3333 394.826 69.5C405.826 63.5 418.076 60.5 431.576 60.5C444.743 60.5 456.66 63.3333 467.326 69C477.993 74.6667 486.326 82.8333 492.326 93.5C498.493 104 501.576 116.25 501.576 130.25ZM431.826 90C422.993 90 415.576 92.5 409.576 97.5C403.576 102.5 399.91 109.333 398.576 118H464.826C463.493 109.5 459.826 102.75 453.826 97.75C447.826 92.5833 440.493 90 431.826 90ZM543.104 55H487.104V22H639.604V55H583.604V197H543.104V55ZM708.973 199C694.806 199 682.056 196.083 670.723 190.25C659.556 184.25 650.806 176 644.473 165.5C638.139 155 634.973 143.083 634.973 129.75C634.973 116.417 638.139 104.5 644.473 94C650.806 83.5 659.556 75.3333 670.723 69.5C682.056 63.5 694.806 60.5 708.973 60.5C723.139 60.5 735.806 63.5 746.973 69.5C758.139 75.3333 766.889 83.5 773.223 94C779.556 104.5 782.723 116.417 782.723 129.75C782.723 143.083 779.556 155 773.223 165.5C766.889 176 758.139 184.25 746.973 190.25C735.806 196.083 723.139 199 708.973 199ZM708.973 167C718.973 167 727.139 163.667 733.473 157C739.973 150.167 743.223 141.083 743.223 129.75C743.223 118.417 739.973 109.417 733.473 102.75C727.139 95.9167 718.973 92.5 708.973 92.5C698.973 92.5 690.723 95.9167 684.223 102.75C677.723 109.417 674.473 118.417 674.473 129.75C674.473 141.083 677.723 150.167 684.223 157C690.723 163.667 698.973 167 708.973 167ZM888.291 60.5C900.791 60.5 912.124 63.4167 922.291 69.25C932.624 74.9167 940.708 83 946.541 93.5C952.374 103.833 955.291 115.917 955.291 129.75C955.291 143.583 952.374 155.75 946.541 166.25C940.708 176.583 932.624 184.667 922.291 190.5C912.124 196.167 900.791 199 888.291 199C869.791 199 855.708 193.167 846.041 181.5V197H808.791V11.5H847.791V76.75C857.624 65.9167 871.124 60.5 888.291 60.5ZM881.541 167C891.541 167 899.708 163.667 906.041 157C912.541 150.167 915.791 141.083 915.791 129.75C915.791 118.417 912.541 109.417 906.041 102.75C899.708 95.9167 891.541 92.5 881.541 92.5C871.541 92.5 863.291 95.9167 856.791 102.75C850.458 109.417 847.291 118.417 847.291 129.75C847.291 141.083 850.458 150.167 856.791 157C863.291 163.667 871.541 167 881.541 167Z" fill="#ECEEF2"/>
</svg>
